<svg xmlns="http://www.w3.org/2000/svg" viewBox="1138 631 126 209"><path d="M1252 815C1230.8 831.8 1209.83 818.667 1202 810L1198.5 807.5L1192.5 809.5L1181 812.5L1168 809.5L1164.5 799.5L1169.5 787L1187.5 773.5L1174.5 758.5V736.5L1185 722L1176.5 708.5L1159.5 691.5L1149.5 677L1148.5 667.5L1160.5 659.5L1172.5 663L1189.5 686L1199 713L1214.5 711L1212 698.5L1207 675.5L1204.5 654L1209.5 643.5L1219 641.5L1228 652L1234 679.5L1229 713L1235.5 718.5L1247 731.5L1250 750.5L1243.5 765L1234.5 773.5L1243.5 781L1252 798V815Z" fill="white"/>
<path fill-rule="evenodd" clip-rule="evenodd" d="M1215.03 639.01C1215.87 638.975 1216.71 639.031 1217.54 639.177C1222.03 639.985 1225.59 643.253 1228.12 646.903C1239.23 662.943 1235.43 694.775 1232.17 713.255C1239.59 717.303 1244.8 723.563 1248.52 731.051C1250.51 730.983 1254.34 730.141 1254.33 732.967C1254.33 735.607 1253.9 735.88 1251.48 736.053C1251.41 737.041 1251.23 738.846 1251.27 739.759C1251.32 740.756 1251.6 742.205 1251.71 743.273C1252.06 746.434 1251.98 749.629 1251.48 752.77C1250.05 761.212 1245.43 768.265 1238.52 773.18C1240.46 774.666 1242.19 776.137 1243.87 777.92C1252.77 787.352 1255.62 800.854 1255.5 813.475C1255.48 814.873 1254.6 816.145 1253.1 815.987C1250.81 815.755 1250.93 813.936 1250.92 812.184C1250.86 798.509 1246.71 783.724 1234.53 776.051C1233.26 775.251 1230.96 774.741 1231.21 772.837C1231.27 772.397 1231.47 771.988 1231.78 771.676C1232.32 771.162 1233.84 770.549 1234.56 770.117C1242.34 765.425 1246.2 758.252 1247.17 749.414C1245.36 751.624 1243.42 753.053 1240.64 753.765C1230.28 756.413 1225.02 749.924 1222.63 740.794C1220.58 739.33 1217.84 739.682 1216.13 741.507C1215.68 745.313 1214.9 748.309 1212.88 751.689C1208.99 758.198 1199.54 759.748 1193.3 755.892C1189.35 753.451 1187.76 748.114 1186.84 743.736C1186.21 743.046 1185.76 742.82 1184.96 742.415C1184.1 742.453 1183.09 742.636 1182.27 742.695C1180.33 742.832 1179.84 740.902 1180.7 739.5C1181.28 738.564 1183.32 738.617 1184.23 738.486C1184.91 737.256 1185.3 737.22 1186.65 736.953C1194.95 735.303 1203.53 734.314 1211.98 735.317C1213.47 735.495 1214.53 735.603 1215.8 736.435C1218.45 735.742 1219.57 735.676 1222.33 735.952C1225.72 732.466 1238.62 731.501 1243.35 731.265C1241.06 726.881 1237.03 722.239 1232.98 719.389C1232.21 718.846 1231.43 718.333 1230.62 717.852C1229.71 717.314 1227.48 716.506 1227.08 715.449C1226.69 714.412 1228.27 707.195 1228.5 705.637C1230.93 689.831 1233.14 664.109 1224.38 650.269C1222.69 647.607 1220.03 644.907 1216.85 644.233C1215.06 643.847 1213.18 644.192 1211.64 645.192C1210.28 646.089 1209.18 647.545 1208.49 649.01C1205.24 655.926 1207.97 665.644 1209.74 672.704C1210.74 676.596 1211.71 680.494 1212.66 684.398C1214.31 691.284 1215.58 698.255 1216.48 705.279C1216.64 706.63 1216.74 708.467 1216.97 709.764C1217.96 715.339 1214.34 713.815 1210.34 713.989C1207.86 714.093 1205.41 714.471 1203.01 715.116C1201.26 715.588 1198.06 717.179 1197.37 714.76C1197.01 713.487 1196.65 712.123 1196.28 710.837C1195.54 708.168 1194.71 705.521 1193.8 702.902C1189.81 691.291 1179.53 668.926 1167.93 663.323C1164.95 661.883 1161.7 661.565 1158.56 662.705C1155.88 663.68 1153.62 665.615 1152.42 668.231C1151.07 671.165 1151.34 674.152 1152.42 677.112C1154.58 682.316 1158.87 686.176 1162.88 689.956C1165.14 692.046 1167.34 694.183 1169.5 696.366C1175.31 702.308 1180.37 708.942 1184.58 716.119C1184.95 716.768 1185.45 717.735 1185.84 718.334C1188.69 722.734 1186.86 722.662 1183.93 725.778C1181.04 728.899 1178.8 732.563 1177.34 736.559C1173.27 747.672 1175.88 760.515 1185.19 768.138C1186.61 769.303 1187.96 770.205 1189.58 771.058C1190.05 771.307 1190.6 771.698 1190.79 772.23C1191.4 773.993 1190.28 774.582 1188.84 775.153C1186.59 776.039 1184.42 777.184 1182.4 778.514C1176.63 782.49 1171.14 788.589 1168.38 795.077C1167.18 797.908 1166.54 801.522 1167.75 804.42C1168.74 806.771 1170.86 808.553 1173.21 809.442C1178.37 811.392 1184.64 810.459 1189.58 808.311C1192.36 807.102 1195.43 805.105 1196.54 802.162C1197.18 800.458 1197.24 798.362 1196.49 796.682C1195.84 795.216 1194.63 794.075 1193.13 793.522C1190.28 792.461 1187.12 793.59 1184.55 794.904C1183.28 795.507 1182.08 796.847 1180.59 796.204C1179.58 795.763 1179.11 794.273 1179.73 793.481C1181.17 791.659 1185.34 789.976 1187.4 789.414C1190.76 788.503 1193.6 788.988 1196.53 790.625C1197.87 789.811 1198.72 789.669 1200.27 789.547C1200.84 786.026 1204.4 785.53 1207.24 784.713C1211.25 783.558 1226.67 783.748 1226.88 789.443C1226.86 794.945 1227.01 800.534 1226.85 806.027C1226.67 812.113 1221.11 815.402 1215.64 815.681C1209.94 815.971 1203.94 815.35 1201.08 809.829C1199.4 809.861 1198.34 809.607 1196.86 808.897C1190.61 814.023 1181.59 816.256 1173.68 814.398C1165.35 812.441 1160.66 804.627 1163.12 796.324C1166.08 786.363 1174.35 777.8 1183.16 772.631C1179.4 769.575 1176.49 766.431 1174.31 762.067C1167.2 747.821 1171.04 732.265 1181.76 721.239C1178.17 714.582 1173.79 708.39 1168.72 702.8C1166.21 700.035 1163.88 697.835 1161.2 695.294C1155.8 690.163 1149.38 684.651 1147.21 677.243C1146.01 673.137 1146.28 669.01 1148.37 665.254C1150.54 661.423 1154.15 658.625 1158.39 657.487C1175.94 652.619 1189.96 680.257 1195.32 693.102C1197.69 698.798 1199.69 704.644 1201.3 710.602C1205.5 709.49 1207.66 709.241 1212 709.176C1211.86 706.556 1211.18 702.242 1210.73 699.588C1209.43 692.087 1207.81 684.645 1205.87 677.284C1203.05 666.161 1197.7 649.954 1208.51 641.327C1210.34 639.863 1212.71 639.157 1215.03 639.01ZM1223.76 791.825C1218.75 794.419 1208.39 794.576 1203.39 791.877C1202.7 793.603 1200.89 792.444 1199.11 792.968C1199.64 793.747 1199.96 794.334 1200.4 795.16C1201.24 795.155 1202.14 795.178 1202.78 795.851C1204.31 797.461 1204.1 801.945 1202.74 803.606C1202.27 804.181 1200.98 804.328 1200.29 804.327C1199.89 805.138 1199.63 805.619 1199.15 806.382L1199.28 806.422C1200.26 806.712 1200.97 806.611 1201.96 806.419C1203.85 806.05 1203.67 807.933 1204.37 808.987C1206.69 812.475 1212.53 812.664 1216.2 812.229C1220.66 811.553 1223.58 809.517 1223.61 804.688C1223.62 803.716 1223.66 802.684 1223.68 801.707L1223.76 791.825ZM1223.71 789.735C1221.62 787.575 1215.81 786.996 1212.83 787.162C1211.06 787.244 1204.05 787.777 1203.61 789.629C1203.78 790.166 1204.04 790.212 1204.57 790.497C1207.79 789.065 1211.03 788.797 1214.52 788.907C1216.95 789.011 1220.13 789.324 1222.3 790.562C1222.96 790.256 1223.12 790.171 1223.71 789.735Z" fill="#2C281C"/>
<path d="M1238.96 794.772C1239.44 794.761 1239.86 794.779 1240.3 794.995C1240.8 795.24 1241.03 795.611 1241.21 796.124C1241.98 798.328 1244.12 813.099 1243.15 814.914C1242.84 815.501 1242.31 815.772 1241.7 815.977C1239.75 816.082 1239.21 815.053 1239.17 813.296C1239.12 811.312 1238.98 809.258 1238.8 807.281C1238.57 804.905 1238.24 802.539 1237.81 800.192C1237.44 798.154 1236.36 795.548 1238.96 794.772Z" fill="#2C281C"/>
<path d="M1220.88 752.153C1222.44 752.049 1224.26 752.155 1225.55 753.172C1227.71 754.879 1226.56 757.54 1224.35 758.525C1223.36 758.968 1222.7 759.113 1221.61 759.208C1214.86 759.771 1213.53 753.137 1220.88 752.153Z" fill="#2C281C"/></svg>